<?xml version="1.0" standalone="no"?>
<!DOCTYPE svg PUBLIC "-//W3C//DTD SVG 20010904//EN"
 "http://www.w3.org/TR/2001/REC-SVG-20010904/DTD/svg10.dtd">
<svg version="1.0" xmlns="http://www.w3.org/2000/svg"
 width="800.000000pt" height="800.000000pt" viewBox="0 0 800.000000 800.000000"
 preserveAspectRatio="xMidYMid meet">
<metadata>
Created by potrace 1.11, written by Peter Selinger 2001-2013
</metadata>
<g transform="translate(0.000000,800.000000) scale(0.100000,-0.100000)"
fill="#000000" stroke="none">
<path d="M3225 6735 c-156 -28 -308 -105 -396 -201 -22 -24 -191 -251 -239
-321 -8 -11 -78 -110 -156 -220 -303 -427 -444 -637 -479 -718 -96 -218 -43
-495 128 -674 57 -60 142 -114 552 -351 193 -111 351 -204 353 -205 2 -2 -28
-46 -67 -97 -137 -186 -175 -281 -174 -443 1 -122 21 -205 74 -302 l39 -73
-96 -145 -97 -145 -494 0 -493 0 -1 173 c-1 282 -6 305 -82 359 -32 23 -34 23
-353 22 -177 -1 -332 -4 -346 -7 -39 -10 -86 -62 -94 -104 -4 -21 -8 -364 -8
-763 -1 -810 -6 -759 70 -817 l36 -27 322 -1 c294 0 324 2 355 19 73 40 91 72
98 177 l6 79 181 1 c466 2 915 8 955 14 106 16 259 78 358 146 97 67 199 189
353 422 l82 124 130 2 c141 1 202 15 308 72 133 71 231 186 389 458 9 15 8 16
406 -214 116 -67 230 -133 255 -147 25 -14 128 -74 230 -133 199 -116 336
-185 368 -185 29 0 88 27 110 50 11 12 43 67 72 124 l54 103 86 6 c456 33 803
320 925 767 14 49 19 106 19 234 l1 170 227 115 c125 64 248 130 272 148 50
35 66 72 60 137 -8 85 -7 85 -479 357 -137 79 -257 149 -267 154 -9 6 -29 17
-45 26 -15 8 -379 216 -808 461 -429 245 -796 455 -815 466 -19 10 -100 57
-180 102 -195 112 -208 119 -260 148 -25 14 -90 51 -145 82 -55 31 -120 68
-145 82 -25 14 -110 62 -190 108 -80 45 -174 98 -210 118 -36 19 -81 45 -100
57 -19 12 -102 58 -185 103 -200 109 -314 134 -470 107z"/>
</g>
</svg>
